# Created By Carrara 8.0

mtllib D6.Mtl

# Number of vertices: 152
v -5 0.59421 -4.40579
v -4.948372 0.599366 -4.67401
v -4.845368 0.60281 -4.845368
v -4.948372 0.32599 -4.400634
v -4.901175 0.346643 -4.653357
v -4.807747 0.360409 -4.807747
v -4.845368 0.154632 -4.39719
v -4.807747 0.192253 -4.639591
v -4.756945 0.243055 -4.756945
v -4.40579 0.59421 -5
v -4.400634 0.32599 -4.948372
v -4.39719 0.154632 -4.845368
v -4.67401 0.599366 -4.948372
v -4.653357 0.346643 -4.901175
v -4.639591 0.192253 -4.807747
v -4.40579 0 -4.40579
v -4.67401 0.051628 -4.400634
v -4.400634 0.051628 -4.67401
v -4.653357 0.098825 -4.653357
v 4.40579 0.59421 -5
v 4.67401 0.599366 -4.948372
v 4.845368 0.60281 -4.845368
v 4.400634 0.32599 -4.948372
v 4.653357 0.346643 -4.901175
v 4.807747 0.360409 -4.807747
v 4.39719 0.154632 -4.845368
v 4.639591 0.192253 -4.807747
v 4.756945 0.243055 -4.756945
v 5 0.59421 -4.40579
v 4.948372 0.32599 -4.400634
v 4.845368 0.154632 -4.39719
v 4.948372 0.599366 -4.67401
v 4.901175 0.346643 -4.653357
v 4.807747 0.192253 -4.639591
v 4.40579 0 -4.40579
v 4.400634 0.051628 -4.67401
v 4.67401 0.051628 -4.400634
v 4.653357 0.098825 -4.653357
v 5 0.59421 4.40579
v 4.948372 0.599366 4.67401
v 4.845368 0.60281 4.845368
v 4.948372 0.32599 4.400634
v 4.901175 0.346643 4.653357
v 4.807747 0.360409 4.807747
v 4.845368 0.154632 4.39719
v 4.807747 0.192253 4.639591
v 4.756945 0.243055 4.756945
v 4.40579 0.59421 5
v 4.400634 0.32599 4.948372
v 4.39719 0.154632 4.845368
v 4.67401 0.599366 4.948372
v 4.653357 0.346643 4.901175
v 4.639591 0.192253 4.807747
v 4.40579 0 4.40579
v 4.67401 0.051628 4.400634
v 4.400634 0.051628 4.67401
v 4.653357 0.098825 4.653357
v -4.40579 0 4.40579
v -4.400634 0.051628 4.67401
v -4.39719 0.154632 4.845368
v -4.67401 0.051628 4.400634
v -4.653357 0.098825 4.653357
v -4.639591 0.192253 4.807747
v -4.845368 0.154632 4.39719
v -4.807747 0.192253 4.639591
v -4.756945 0.243055 4.756945
v -4.40579 0.59421 5
v -4.67401 0.599366 4.948372
v -4.845368 0.60281 4.845368
v -4.400634 0.32599 4.948372
v -4.653357 0.346643 4.901175
v -4.807747 0.360409 4.807747
v -5 0.59421 4.40579
v -4.948372 0.32599 4.400634
v -4.948372 0.599366 4.67401
v -4.901175 0.346643 4.653357
v -5 9.40579 -4.40579
v -4.948372 9.674009 -4.400634
v -4.845368 9.845367 -4.39719
v -4.948372 9.400634 -4.67401
v -4.901175 9.653357 -4.653357
v -4.807747 9.807747 -4.639591
v -4.845368 9.39719 -4.845368
v -4.807747 9.639591 -4.807747
v -4.756945 9.756945 -4.756945
v -4.40579 10 -4.40579
v -4.400634 9.948372 -4.67401
v -4.39719 9.845367 -4.845368
v -4.67401 9.948372 -4.400634
v -4.653357 9.901175 -4.653357
v -4.639591 9.807747 -4.807747
v -4.40579 9.40579 -5
v -4.67401 9.400634 -4.948372
v -4.400634 9.674009 -4.948372
v -4.653357 9.653357 -4.901175
v 4.40579 10 -4.40579
v 4.67401 9.948372 -4.400634
v 4.845368 9.845367 -4.39719
v 4.400634 9.948372 -4.67401
v 4.653357 9.901175 -4.653357
v 4.807747 9.807747 -4.639591
v 4.39719 9.845367 -4.845368
v 4.639591 9.807747 -4.807747
v 4.756945 9.756945 -4.756945
v 5 9.40579 -4.40579
v 4.948372 9.400634 -4.67401
v 4.845368 9.39719 -4.845368
v 4.948372 9.674009 -4.400634
v 4.901175 9.653357 -4.653357
v 4.807747 9.639591 -4.807747
v 4.40579 9.40579 -5
v 4.400634 9.674009 -4.948372
v 4.67401 9.400634 -4.948372
v 4.653357 9.653357 -4.901175
v 4.40579 10 4.40579
v 4.400634 9.948372 4.67401
v 4.39719 9.845367 4.845368
v 4.67401 9.948372 4.400634
v 4.653357 9.901175 4.653357
v 4.639591 9.807747 4.807747
v 4.845368 9.845367 4.39719
v 4.807747 9.807747 4.639591
v 4.756945 9.756945 4.756945
v 4.40579 9.40579 5
v 4.67401 9.400634 4.948372
v 4.845368 9.39719 4.845368
v 4.400634 9.674009 4.948372
v 4.653357 9.653357 4.901175
v 4.807747 9.639591 4.807747
v 5 9.40579 4.40579
v 4.948372 9.674009 4.400634
v 4.948372 9.400634 4.67401
v 4.901175 9.653357 4.653357
v -4.40579 10 4.40579
v -4.67401 9.948372 4.400634
v -4.845368 9.845367 4.39719
v -4.400634 9.948372 4.67401
v -4.653357 9.901175 4.653357
v -4.807747 9.807747 4.639591
v -4.39719 9.845367 4.845368
v -4.639591 9.807747 4.807747
v -4.756945 9.756945 4.756945
v -5 9.40579 4.40579
v -4.948372 9.400634 4.67401
v -4.845368 9.39719 4.845368
v -4.948372 9.674009 4.400634
v -4.901175 9.653357 4.653357
v -4.807747 9.639591 4.807747
v -4.40579 9.40579 5
v -4.400634 9.674009 4.948372
v -4.67401 9.400634 4.948372
v -4.653357 9.653357 4.901175

# Number of normals: 152
vn -0.988854 -0.10592 -0.104635
vn -0.921529 -0.110518 -0.372251
vn -0.704038 -0.107208 -0.702024
vn -0.920685 -0.374268 -0.110739
vn -0.864941 -0.354878 -0.354878
vn -0.665367 -0.338486 -0.665367
vn -0.702985 -0.702985 -0.10782
vn -0.665367 -0.665367 -0.338486
vn -0.57735 -0.57735 -0.57735
vn -0.096306 -0.096306 -0.990682
vn -0.110739 -0.374268 -0.920685
vn -0.10782 -0.702985 -0.702985
vn -0.374268 -0.110739 -0.920685
vn -0.354878 -0.354878 -0.864941
vn -0.338486 -0.665367 -0.665367
vn -0.096306 -0.990682 -0.096306
vn -0.374268 -0.920685 -0.110739
vn -0.110739 -0.920685 -0.374268
vn -0.354878 -0.864941 -0.354878
vn 0.105345 -0.105345 -0.98884
vn 0.372251 -0.110518 -0.921529
vn 0.702024 -0.107208 -0.704038
vn 0.110518 -0.372251 -0.921529
vn 0.354878 -0.354878 -0.864941
vn 0.665367 -0.338486 -0.665367
vn 0.106602 -0.703077 -0.703078
vn 0.338486 -0.665367 -0.665367
vn 0.57735 -0.57735 -0.57735
vn 0.990682 -0.096306 -0.096306
vn 0.920685 -0.374268 -0.110739
vn 0.702985 -0.702985 -0.10782
vn 0.920685 -0.110739 -0.374268
vn 0.864941 -0.354878 -0.354878
vn 0.665367 -0.665367 -0.338486
vn 0.10592 -0.988854 -0.104635
vn 0.110518 -0.921529 -0.372251
vn 0.374268 -0.920685 -0.110739
vn 0.354878 -0.864941 -0.354878
vn 0.98884 -0.105345 0.105345
vn 0.921529 -0.110518 0.372251
vn 0.704038 -0.107208 0.702024
vn 0.921529 -0.372251 0.110518
vn 0.864941 -0.354878 0.354878
vn 0.665367 -0.338486 0.665367
vn 0.703078 -0.703077 0.106602
vn 0.665367 -0.665367 0.338486
vn 0.57735 -0.57735 0.57735
vn 0.096899 -0.095724 0.99068
vn 0.110518 -0.372251 0.921529
vn 0.106602 -0.703077 0.703078
vn 0.374268 -0.110739 0.920685
vn 0.354878 -0.354878 0.864941
vn 0.338486 -0.665367 0.665367
vn 0.096317 -0.99068 0.096317
vn 0.372251 -0.921529 0.110518
vn 0.110518 -0.921529 0.372251
vn 0.354878 -0.864941 0.354878
vn -0.104635 -0.988854 0.10592
vn -0.110739 -0.920685 0.374268
vn -0.10782 -0.702985 0.702985
vn -0.372251 -0.921529 0.110518
vn -0.354878 -0.864941 0.354878
vn -0.338486 -0.665367 0.665367
vn -0.703077 -0.703078 0.106602
vn -0.665367 -0.665367 0.338486
vn -0.57735 -0.57735 0.57735
vn -0.104635 -0.10592 0.988854
vn -0.372251 -0.110518 0.921529
vn -0.702024 -0.107208 0.704038
vn -0.110739 -0.374268 0.920685
vn -0.354878 -0.354878 0.864941
vn -0.665367 -0.338486 0.665367
vn -0.99068 -0.095724 0.096899
vn -0.921529 -0.372251 0.110518
vn -0.920685 -0.110739 0.374268
vn -0.864941 -0.354878 0.354878
vn -0.990682 0.096306 -0.096306
vn -0.920685 0.374268 -0.110739
vn -0.702985 0.702985 -0.10782
vn -0.920685 0.110739 -0.374268
vn -0.864941 0.354878 -0.354878
vn -0.665367 0.665367 -0.338486
vn -0.702024 0.107208 -0.704037
vn -0.665367 0.338486 -0.665367
vn -0.57735 0.57735 -0.57735
vn -0.105211 0.988869 -0.105211
vn -0.110739 0.920685 -0.374268
vn -0.10782 0.702985 -0.702985
vn -0.374268 0.920685 -0.110739
vn -0.354878 0.864941 -0.354878
vn -0.338486 0.665367 -0.665367
vn -0.104635 0.10592 -0.988854
vn -0.372251 0.110518 -0.921529
vn -0.110739 0.374268 -0.920685
vn -0.354878 0.354878 -0.864941
vn 0.096899 0.99068 -0.095724
vn 0.374268 0.920685 -0.110739
vn 0.702985 0.702985 -0.10782
vn 0.110518 0.921529 -0.372251
vn 0.354878 0.864941 -0.354878
vn 0.665367 0.665367 -0.338486
vn 0.106602 0.703078 -0.703077
vn 0.338486 0.665367 -0.665367
vn 0.57735 0.57735 -0.57735
vn 0.988854 0.10592 -0.104635
vn 0.921529 0.110518 -0.372251
vn 0.704038 0.107208 -0.702024
vn 0.920685 0.374268 -0.110739
vn 0.864941 0.354878 -0.354878
vn 0.665367 0.338486 -0.665367
vn 0.096899 0.095724 -0.99068
vn 0.110518 0.372251 -0.921529
vn 0.374268 0.110739 -0.920685
vn 0.354878 0.354878 -0.864941
vn 0.105345 0.98884 0.105345
vn 0.110518 0.921529 0.372251
vn 0.106602 0.703078 0.703077
vn 0.372251 0.921529 0.110518
vn 0.354878 0.864941 0.354878
vn 0.338486 0.665367 0.665367
vn 0.703077 0.703078 0.106602
vn 0.665367 0.665367 0.338486
vn 0.57735 0.57735 0.57735
vn 0.105345 0.105345 0.98884
vn 0.372251 0.110518 0.921529
vn 0.702024 0.107208 0.704038
vn 0.110518 0.372251 0.921529
vn 0.354878 0.354878 0.864941
vn 0.665367 0.338486 0.665367
vn 0.99068 0.095724 0.096899
vn 0.921529 0.372251 0.110518
vn 0.920685 0.110739 0.374268
vn 0.864941 0.354878 0.354878
vn -0.095724 0.99068 0.096899
vn -0.372251 0.921529 0.110518
vn -0.703077 0.703078 0.106602
vn -0.110739 0.920685 0.374268
vn -0.354878 0.864941 0.354878
vn -0.665367 0.665367 0.338486
vn -0.10782 0.702985 0.702985
vn -0.338486 0.665367 0.665367
vn -0.57735 0.57735 0.57735
vn -0.98884 0.105345 0.105345
vn -0.921529 0.110518 0.372251
vn -0.704038 0.107208 0.702024
vn -0.921529 0.372251 0.110518
vn -0.864941 0.354878 0.354878
vn -0.665367 0.338486 0.665367
vn -0.096306 0.096306 0.990682
vn -0.110739 0.374268 0.920685
vn -0.374268 0.110739 0.920685
vn -0.354878 0.354878 0.864941

# Number of texture vertices: 186
vt 0.514801 0.514865
vt 0.506858 0.514866
vt 0.499968 0.514868
vt 0.485128 0.500026
vt 0.514798 0.506921
vt 0.506855 0.506922
vt 0.499964 0.506923
vt 0.49307 0.500029
vt 0.514796 0.500029
vt 0.506852 0.50003
vt 0.499959 0.500031
vt 0.485129 0.485192
vt 0.493071 0.485193
vt 0.499961 0.485194
vt 0.485129 0.493135
vt 0.493071 0.493137
vt 0.499961 0.493138
vt 0.514795 0.485193
vt 0.514795 0.493138
vt 0.506851 0.485194
vt 0.506851 0.493138
vt 0.48511 0.26987
vt 0.48511 0.261927
vt 0.48511 0.255038
vt 0.49994 0.240202
vt 0.493052 0.26987
vt 0.493052 0.261927
vt 0.493052 0.255038
vt 0.49994 0.248146
vt 0.499941 0.269869
vt 0.499941 0.261927
vt 0.499941 0.255038
vt 0.514774 0.2402
vt 0.514775 0.248144
vt 0.514775 0.255035
vt 0.506831 0.240201
vt 0.506831 0.248145
vt 0.506831 0.255036
vt 0.514775 0.269868
vt 0.506831 0.269869
vt 0.514775 0.261926
vt 0.506831 0.261927
vt 0.730107 0.240168
vt 0.73805 0.240166
vt 0.74494 0.240163
vt 0.759778 0.254989
vt 0.730108 0.248111
vt 0.73805 0.248109
vt 0.74494 0.248106
vt 0.751833 0.254992
vt 0.730109 0.255002
vt 0.738051 0.254999
vt 0.74494 0.254996
vt 0.759782 0.269826
vt 0.751838 0.269829
vt 0.744946 0.269831
vt 0.75978 0.261881
vt 0.751835 0.261884
vt 0.744943 0.261887
vt 0.730112 0.269836
vt 0.73011 0.261892
vt 0.738055 0.269833
vt 0.738053 0.26189
vt 0.730134 0.485184
vt 0.738079 0.485184
vt 0.744971 0.485183
vt 0.730134 0.493128
vt 0.738078 0.493128
vt 0.74497 0.493128
vt 0.730133 0.500019
vt 0.738077 0.500019
vt 0.744969 0.500021
vt 0.759806 0.485182
vt 0.759805 0.493127
vt 0.759804 0.500018
vt 0.744965 0.514854
vt 0.751862 0.485183
vt 0.751861 0.493128
vt 0.75186 0.500019
vt 0.744967 0.506911
vt 0.730131 0.514853
vt 0.730132 0.50691
vt 0.738074 0.514854
vt 0.738076 0.50691
vt 0.514813 0.73019
vt 0.514813 0.738136
vt 0.514813 0.745029
vt 0.240151 0.500026
vt 0.506869 0.730192
vt 0.506868 0.738138
vt 0.506868 0.745031
vt 0.24809 0.500027
vt 0.499977 0.730193
vt 0.269813 0.500035
vt 0.499976 0.73814
vt 0.261868 0.500032
vt 0.499976 0.745033
vt 0.254976 0.500029
vt 0.240152 0.485198
vt 0.248092 0.485199
vt 0.254981 0.4852
vt 0.240151 0.493139
vt 0.248091 0.493139
vt 0.25498 0.493141
vt 0.269815 0.485204
vt 0.269814 0.493146
vt 0.261871 0.485202
vt 0.26187 0.493143
vt 0.240136 0.269905
vt 0.240135 0.261963
vt 0.240135 0.255073
vt 0.514731 0.01003
vt 0.248078 0.269904
vt 0.248078 0.261962
vt 0.248077 0.255072
vt 0.506788 0.010032
vt 0.254968 0.269903
vt 0.254967 0.261961
vt 0.254967 0.255071
vt 0.499896 0.010035
vt 0.514735 0.024865
vt 0.506791 0.024867
vt 0.4999 0.024869
vt 0.269799 0.255069
vt 0.514733 0.016921
vt 0.506789 0.016923
vt 0.499898 0.016925
vt 0.261857 0.25507
vt 0.2698 0.269901
vt 0.261858 0.269902
vt 0.2698 0.261959
vt 0.261857 0.26196
vt 0.024842 0.269926
vt 0.016902 0.269926
vt 0.010014 0.269926
vt 0.989996 0.269809
vt 0.024843 0.261986
vt 0.016903 0.261987
vt 0.010016 0.261987
vt 0.989998 0.261859
vt 0.024844 0.2551
vt 0.730074 0.01
vt 0.016905 0.2551
vt 0.738018 0.01
vt 0.010018 0.255101
vt 0.99 0.254962
vt 0.74491 0.01
vt 0.975153 0.269809
vt 0.975154 0.261861
vt 0.975155 0.254965
vt 0.744909 0.024832
vt 0.983101 0.269809
vt 0.983103 0.26186
vt 0.983104 0.254963
vt 0.74491 0.01689
vt 0.730074 0.024834
vt 0.730074 0.016891
vt 0.738018 0.024833
vt 0.738018 0.01689
vt 0.024858 0.485214
vt 0.024856 0.493154
vt 0.024854 0.500042
vt 0.73012 0.745008
vt 0.016918 0.485213
vt 0.016916 0.493152
vt 0.016914 0.500039
vt 0.738062 0.745009
vt 0.01003 0.485212
vt 0.989997 0.485161
vt 0.010029 0.493151
vt 0.989999 0.493105
vt 0.010027 0.500037
vt 0.744951 0.745011
vt 0.99 0.499996
vt 0.730123 0.730177
vt 0.738066 0.730178
vt 0.744956 0.730179
vt 0.975162 0.500007
vt 0.730121 0.738119
vt 0.738064 0.73812
vt 0.744954 0.738121
vt 0.983107 0.500002
vt 0.975159 0.48517
vt 0.983105 0.485165
vt 0.975161 0.493115
vt 0.983106 0.49311

g D6.obj 
g Default 
usemtl Default
# Number of Polygons: 150
f 1/1/1 2/2/2 5/6/5 4/5/4 
f 2/2/2 3/3/3 6/7/6 5/6/5 
f 4/5/4 5/6/5 8/10/8 7/9/7 
f 5/6/5 6/7/6 9/11/9 8/10/8 
f 10/12/10 11/13/11 14/16/14 13/15/13 
f 11/13/11 12/14/12 15/17/15 14/16/14 
f 13/15/13 14/16/14 6/8/6 3/4/3 
f 14/16/14 15/17/15 9/11/9 6/8/6 
f 16/18/16 17/19/17 19/21/19 18/20/18 
f 17/19/17 7/9/7 8/10/8 19/21/19 
f 18/20/18 19/21/19 15/17/15 12/14/12 
f 19/21/19 8/10/8 9/11/9 15/17/15 
f 20/22/20 21/23/21 24/27/24 23/26/23 
f 21/23/21 22/24/22 25/28/25 24/27/24 
f 23/26/23 24/27/24 27/31/27 26/30/26 
f 24/27/24 25/28/25 28/32/28 27/31/27 
f 29/33/29 30/34/30 33/37/33 32/36/32 
f 30/34/30 31/35/31 34/38/34 33/37/33 
f 32/36/32 33/37/33 25/29/25 22/25/22 
f 33/37/33 34/38/34 28/32/28 25/29/25 
f 35/39/35 36/40/36 38/42/38 37/41/37 
f 36/40/36 26/30/26 27/31/27 38/42/38 
f 37/41/37 38/42/38 34/38/34 31/35/31 
f 38/42/38 27/31/27 28/32/28 34/38/34 
f 39/43/39 40/44/40 43/48/43 42/47/42 
f 40/44/40 41/45/41 44/49/44 43/48/43 
f 42/47/42 43/48/43 46/52/46 45/51/45 
f 43/48/43 44/49/44 47/53/47 46/52/46 
f 48/54/48 49/55/49 52/58/52 51/57/51 
f 49/55/49 50/56/50 53/59/53 52/58/52 
f 51/57/51 52/58/52 44/50/44 41/46/41 
f 52/58/52 53/59/53 47/53/47 44/50/44 
f 54/60/54 55/61/55 57/63/57 56/62/56 
f 55/61/55 45/51/45 46/52/46 57/63/57 
f 56/62/56 57/63/57 53/59/53 50/56/50 
f 57/63/57 46/52/46 47/53/47 53/59/53 
f 58/64/58 59/65/59 62/68/62 61/67/61 
f 59/65/59 60/66/60 63/69/63 62/68/62 
f 61/67/61 62/68/62 65/71/65 64/70/64 
f 62/68/62 63/69/63 66/72/66 65/71/65 
f 67/73/67 68/74/68 71/78/71 70/77/70 
f 68/74/68 69/75/69 72/79/72 71/78/71 
f 70/77/70 71/78/71 63/69/63 60/66/60 
f 71/78/71 72/79/72 66/72/66 63/69/63 
f 73/81/73 74/82/74 76/84/76 75/83/75 
f 74/82/74 64/70/64 65/71/65 76/84/76 
f 75/83/75 76/84/76 72/80/72 69/76/69 
f 76/84/76 65/71/65 66/72/66 72/80/72 
f 77/85/77 78/86/78 81/90/81 80/89/80 
f 78/86/78 79/87/79 82/91/82 81/90/81 
f 80/89/80 81/90/81 84/95/84 83/93/83 
f 81/90/81 82/91/82 85/97/85 84/95/84 
f 86/99/86 87/100/87 90/103/90 89/102/89 
f 87/100/87 88/101/88 91/104/91 90/103/90 
f 89/102/89 90/103/90 82/92/82 79/88/79 
f 90/103/90 91/104/91 85/98/85 82/92/82 
f 92/105/92 93/106/93 95/108/95 94/107/94 
f 93/106/93 83/94/83 84/96/84 95/108/95 
f 94/107/94 95/108/95 91/104/91 88/101/88 
f 95/108/95 84/96/84 85/98/85 91/104/91 
f 96/109/96 97/110/97 100/114/100 99/113/99 
f 97/110/97 98/111/98 101/115/101 100/114/100 
f 99/113/99 100/114/100 103/118/103 102/117/102 
f 100/114/100 101/115/101 104/119/104 103/118/103 
f 105/121/105 106/122/106 109/126/109 108/125/108 
f 106/122/106 107/123/107 110/127/110 109/126/109 
f 108/125/108 109/126/109 101/116/101 98/112/98 
f 109/126/109 110/127/110 104/120/104 101/116/101 
f 111/129/111 112/130/112 114/132/114 113/131/113 
f 112/130/112 102/117/102 103/118/103 114/132/114 
f 113/131/113 114/132/114 110/128/110 107/124/107 
f 114/132/114 103/118/103 104/119/104 110/128/110 
f 115/133/115 116/134/116 119/138/119 118/137/118 
f 116/134/116 117/135/117 120/139/120 119/138/119 
f 118/137/118 119/138/119 122/143/122 121/141/121 
f 119/138/119 120/139/120 123/145/123 122/143/122 
f 124/148/124 125/149/125 128/153/128 127/152/127 
f 125/149/125 126/150/126 129/154/129 128/153/128 
f 127/152/127 128/153/128 120/140/120 117/136/117 
f 128/153/128 129/154/129 123/146/123 120/140/120 
f 130/156/130 131/157/131 133/159/133 132/158/132 
f 131/157/131 121/142/121 122/144/122 133/159/133 
f 132/158/132 133/159/133 129/155/129 126/151/126 
f 133/159/133 122/144/122 123/147/123 129/155/129 
f 134/160/134 135/161/135 138/165/138 137/164/137 
f 135/161/135 136/162/136 139/166/139 138/165/138 
f 137/164/137 138/165/138 141/170/141 140/168/140 
f 138/165/138 139/166/139 142/172/142 141/170/141 
f 143/175/143 144/176/144 147/180/147 146/179/146 
f 144/176/144 145/177/145 148/181/148 147/180/147 
f 146/179/146 147/180/147 139/167/139 136/163/136 
f 147/180/147 148/181/148 142/173/142 139/167/139 
f 149/183/149 150/184/150 152/186/152 151/185/151 
f 150/184/150 140/169/140 141/171/141 152/186/152 
f 151/185/151 152/186/152 148/182/148 145/178/145 
f 152/186/152 141/171/141 142/174/142 148/182/148 
f 86/99/86 89/102/89 135/161/135 134/160/134 
f 35/39/35 37/41/37 55/61/55 54/60/54 
f 37/41/37 31/35/31 45/51/45 55/61/55 
f 1/1/1 4/5/4 74/82/74 73/81/73 
f 77/85/77 143/175/143 146/179/146 78/86/78 
f 97/110/97 118/137/118 121/141/121 98/111/98 
f 4/5/4 7/9/7 64/70/64 74/82/74 
f 105/121/105 108/125/108 131/157/131 130/156/130 
f 96/109/96 115/133/115 118/137/118 97/110/97 
f 30/34/30 42/47/42 45/51/45 31/35/31 
f 89/102/89 79/88/79 136/162/136 135/161/135 
f 108/125/108 98/112/98 121/142/121 131/157/131 
f 29/33/29 39/43/39 42/47/42 30/34/30 
f 17/19/17 61/67/61 64/70/64 7/9/7 
f 78/86/78 146/179/146 136/163/136 79/87/79 
f 16/18/16 58/64/58 61/67/61 17/19/17 
f 18/20/18 12/14/12 26/30/26 36/40/36 
f 87/100/87 99/113/99 102/117/102 88/101/88 
f 70/77/70 60/66/60 50/56/50 49/55/49 
f 94/107/94 88/101/88 102/117/102 112/130/112 
f 150/184/150 127/152/127 117/136/117 140/169/140 
f 58/64/58 54/60/54 56/62/56 59/65/59 
f 134/160/134 137/164/137 116/134/116 115/133/115 
f 16/18/16 18/20/18 36/40/36 35/39/35 
f 149/183/149 124/148/124 127/152/127 150/184/150 
f 86/99/86 96/109/96 99/113/99 87/100/87 
f 16/18/16 35/39/35 54/60/54 58/64/58 
f 134/160/134 115/133/115 96/109/96 86/99/86 
f 67/73/67 70/77/70 49/55/49 48/54/48 
f 11/13/11 23/26/23 26/30/26 12/14/12 
f 59/65/59 56/62/56 50/56/50 60/66/60 
f 137/164/137 140/168/140 117/135/117 116/134/116 
f 10/12/10 20/22/20 23/26/23 11/13/11 
f 92/105/92 94/107/94 112/130/112 111/129/111 
f 77/85/77 1/1/1 73/81/73 143/175/143 
f 13/15/13 3/4/3 83/94/83 93/106/93 
f 32/36/32 22/25/22 107/123/107 106/122/106 
f 132/158/132 126/151/126 41/45/41 40/44/40 
f 113/131/113 107/124/107 22/24/22 21/23/21 
f 48/54/48 124/148/124 149/183/149 67/73/67 
f 77/85/77 80/89/80 2/2/2 1/1/1 
f 48/54/48 51/57/51 125/149/125 124/148/124 
f 51/57/51 41/46/41 126/150/126 125/149/125 
f 130/156/130 132/158/132 40/44/40 39/43/39 
f 75/83/75 69/76/69 145/177/145 144/176/144 
f 149/183/149 151/185/151 68/74/68 67/73/67 
f 29/33/29 32/36/32 106/122/106 105/121/105 
f 130/156/130 39/43/39 29/33/29 105/121/105 
f 73/81/73 75/83/75 144/176/144 143/175/143 
f 80/89/80 83/93/83 3/3/3 2/2/2 
f 10/12/10 13/15/13 93/106/93 92/105/92 
f 111/129/111 113/131/113 21/23/21 20/22/20 
f 111/129/111 20/22/20 10/12/10 92/105/92 
f 151/185/151 145/178/145 69/75/69 68/74/68 
